<svg width="720" height="520" viewBox="0 0 720 520" fill="none" xmlns="http://www.w3.org/2000/svg">
  <rect width="720" height="520" fill="#F4F9F6"/>
  <rect x="48" y="48" width="624" height="424" rx="24" fill="#FFFFFF" stroke="#DCE8E1"/>
  <rect x="88" y="104" width="544" height="92" rx="18" fill="#EEF5F1"/>
  <rect x="112" y="128" width="162" height="18" rx="9" fill="#24493F"/>
  <rect x="112" y="160" width="220" height="12" rx="6" fill="#B7CAC1"/>
  <rect x="354" y="124" width="238" height="44" rx="12" fill="#D7E5DE"/>
  <rect x="88" y="236" width="252" height="176" rx="20" fill="#FAFCFB" stroke="#DCE8E1"/>
  <rect x="380" y="236" width="252" height="176" rx="20" fill="#FAFCFB" stroke="#DCE8E1"/>
  <circle cx="160" cy="292" r="28" fill="#24493F"/>
  <circle cx="254" cy="292" r="28" fill="#6B9486"/>
  <path d="M126 348C126 323.699 145.699 304 170 304H174C198.301 304 218 323.699 218 348V364H126V348Z" fill="#D9E5DE"/>
  <path d="M220 348C220 323.699 239.699 304 264 304H268C292.301 304 312 323.699 312 348V364H220V348Z" fill="#BFD1C8"/>
  <rect x="412" y="272" width="188" height="20" rx="10" fill="#24493F"/>
  <rect x="412" y="308" width="162" height="12" rx="6" fill="#B7CAC1"/>
  <rect x="412" y="332" width="132" height="12" rx="6" fill="#D5E2DC"/>
  <rect x="412" y="364" width="96" height="28" rx="8" fill="#6B9486"/>
  <path d="M88 438H632" stroke="#DCE8E1" stroke-width="2"/>
</svg>
