<svg width="720" height="820" viewBox="0 0 720 820" fill="none" xmlns="http://www.w3.org/2000/svg">
  <rect width="720" height="820" fill="#F3F8F5"/>
  <rect x="44" y="44" width="632" height="732" rx="28" fill="#FCFDFC" stroke="#D0DED6"/>
  <rect x="88" y="96" width="544" height="300" rx="20" fill="#E4EEE8"/>
  <circle cx="188" cy="246" r="68" fill="#6E9284"/>
  <circle cx="346" cy="210" r="94" fill="#C7D8D0"/>
  <circle cx="518" cy="262" r="78" fill="#4A6F63"/>
  <path d="M116 470H604" stroke="#23352F" stroke-opacity="0.16" stroke-width="2"/>
  <path d="M116 538H604" stroke="#23352F" stroke-opacity="0.16" stroke-width="2"/>
  <path d="M116 606H604" stroke="#23352F" stroke-opacity="0.16" stroke-width="2"/>
  <rect x="116" y="446" width="202" height="48" rx="10" fill="#24493F"/>
  <rect x="116" y="514" width="344" height="18" rx="9" fill="#D6E4DC"/>
  <rect x="116" y="550" width="428" height="18" rx="9" fill="#D6E4DC"/>
  <rect x="116" y="582" width="372" height="18" rx="9" fill="#D6E4DC"/>
  <rect x="116" y="638" width="488" height="92" rx="18" fill="#ECF4F0"/>
  <rect x="144" y="666" width="196" height="14" rx="7" fill="#9FB9AE"/>
  <rect x="144" y="694" width="308" height="14" rx="7" fill="#D8E5DE"/>
</svg>
