<svg width="720" height="520" viewBox="0 0 720 520" fill="none" xmlns="http://www.w3.org/2000/svg">
  <rect width="720" height="520" fill="#F4F9F6"/>
  <rect x="48" y="48" width="624" height="424" rx="28" fill="#FCFDFC" stroke="#D0DED6"/>
  <path d="M176 140C250 190 316 148 390 204C462 258 520 250 566 184" stroke="#6B9486" stroke-width="8" stroke-linecap="round"/>
  <path d="M144 308C206 250 280 252 342 308C394 356 454 370 556 322" stroke="#4C7568" stroke-width="8" stroke-linecap="round"/>
  <circle cx="154" cy="132" r="26" fill="#24493F"/>
  <circle cx="300" cy="160" r="18" fill="#BFD1C8"/>
  <circle cx="406" cy="214" r="26" fill="#6B9486"/>
  <circle cx="572" cy="176" r="22" fill="#24493F"/>
  <circle cx="142" cy="314" r="22" fill="#BFD1C8"/>
  <circle cx="344" cy="308" r="32" fill="#6B9486"/>
  <circle cx="558" cy="320" r="28" fill="#4C7568"/>
  <rect x="98" y="388" width="524" height="32" rx="16" fill="#E7F0EB"/>
</svg>
