<svg width="720" height="520" viewBox="0 0 720 520" fill="none" xmlns="http://www.w3.org/2000/svg">
  <rect width="720" height="520" fill="#F6F1E8"/>
  <rect x="48" y="48" width="624" height="424" rx="28" fill="#FBF8F2" stroke="#D3C5B3"/>
  <path d="M176 140C250 190 316 148 390 204C462 258 520 250 566 184" stroke="#8F4A22" stroke-width="8" stroke-linecap="round"/>
  <path d="M144 308C206 250 280 252 342 308C394 356 454 370 556 322" stroke="#5B6A72" stroke-width="8" stroke-linecap="round"/>
  <circle cx="154" cy="132" r="26" fill="#1E1A15"/>
  <circle cx="300" cy="160" r="18" fill="#C8AF96"/>
  <circle cx="406" cy="214" r="26" fill="#8F4A22"/>
  <circle cx="572" cy="176" r="22" fill="#1E1A15"/>
  <circle cx="142" cy="314" r="22" fill="#C8AF96"/>
  <circle cx="344" cy="308" r="32" fill="#8F4A22"/>
  <circle cx="558" cy="320" r="28" fill="#5B6A72"/>
  <rect x="98" y="388" width="524" height="32" rx="16" fill="#ECE2D5"/>
</svg>
